<?xml version="1.0" standalone="no"?>
<!DOCTYPE svg PUBLIC "-//W3C//DTD SVG 20010904//EN"
 "http://www.w3.org/TR/2001/REC-SVG-20010904/DTD/svg10.dtd">
<svg version="1.0" xmlns="http://www.w3.org/2000/svg"
 width="512.000000pt" height="512.000000pt" viewBox="0 0 512.000000 512.000000"
 preserveAspectRatio="xMidYMid meet">

<g transform="translate(0.000000,512.000000) scale(0.100000,-0.100000)"
fill="#000000" stroke="none">
<path d="M2477 5106 c-83 -31 -147 -103 -166 -186 -7 -29 -11 -408 -11 -1072
l0 -1027 -1052 -3 c-940 -3 -1057 -5 -1088 -19 -52 -24 -97 -65 -128 -118 -23
-39 -27 -57 -27 -121 0 -64 4 -82 27 -121 31 -53 76 -94 128 -118 31 -14 148
-16 1088 -19 l1052 -3 0 -1024 c0 -702 3 -1040 11 -1075 14 -64 60 -125 124
-165 43 -26 57 -30 124 -30 65 0 83 4 122 27 53 31 94 76 118 128 14 31 16
148 19 1087 l3 1052 1052 3 c939 3 1056 5 1087 19 52 24 97 65 128 118 23 39
27 57 27 121 0 64 -4 82 -27 121 -31 53 -76 94 -128 118 -31 14 -148 16 -1087
19 l-1052 3 -3 1052 c-3 1154 1 1080 -63 1155 -64 76 -189 111 -278 78z"/>
</g>
</svg>
